<svg xmlns="http://www.w3.org/2000/svg" viewBox="0 0 512 512" role="img" aria-labelledby="title desc">
  <title id="title">Rebuttal Skill Suite logo</title>
  <desc id="desc">Three review cards move through an evidence loop toward a verified response.</desc>
  <defs>
    <linearGradient id="bg" x1="78" y1="64" x2="430" y2="456" gradientUnits="userSpaceOnUse">
      <stop offset="0" stop-color="#f8fafc"/>
      <stop offset="1" stop-color="#e0f2fe"/>
    </linearGradient>
    <linearGradient id="loop" x1="116" y1="126" x2="401" y2="402" gradientUnits="userSpaceOnUse">
      <stop offset="0" stop-color="#2563eb"/>
      <stop offset="0.52" stop-color="#0f766e"/>
      <stop offset="1" stop-color="#7c3aed"/>
    </linearGradient>
    <filter id="softShadow" x="-20%" y="-20%" width="140%" height="140%">
      <feDropShadow dx="0" dy="12" stdDeviation="14" flood-color="#0f172a" flood-opacity="0.15"/>
    </filter>
  </defs>

  <rect x="48" y="48" width="416" height="416" rx="96" fill="url(#bg)"/>
  <path d="M356 151c39 31 61 82 53 132-6 42-32 81-70 102" fill="none" stroke="url(#loop)" stroke-width="20" stroke-linecap="round"/>
  <path d="M155 361c-39-31-61-82-53-132 6-42 32-81 70-102" fill="none" stroke="url(#loop)" stroke-width="20" stroke-linecap="round"/>
  <path d="M355 115l9 61-59-17" fill="none" stroke="url(#loop)" stroke-width="20" stroke-linecap="round" stroke-linejoin="round"/>
  <path d="M156 397l-9-61 59 17" fill="none" stroke="url(#loop)" stroke-width="20" stroke-linecap="round" stroke-linejoin="round"/>

  <g filter="url(#softShadow)">
    <rect x="145" y="133" width="222" height="252" rx="30" fill="#ffffff"/>
    <rect x="145" y="133" width="222" height="252" rx="30" fill="none" stroke="#dbeafe" stroke-width="4"/>
  </g>
  <rect x="175" y="170" width="162" height="20" rx="10" fill="#2563eb"/>
  <rect x="175" y="212" width="120" height="14" rx="7" fill="#94a3b8"/>
  <rect x="175" y="242" width="148" height="14" rx="7" fill="#cbd5e1"/>
  <rect x="175" y="272" width="98" height="14" rx="7" fill="#cbd5e1"/>

  <g>
    <circle cx="188" cy="333" r="22" fill="#dcfce7"/>
    <path d="M177 333l8 8 16-18" fill="none" stroke="#15803d" stroke-width="8" stroke-linecap="round" stroke-linejoin="round"/>
  </g>
  <g>
    <circle cx="256" cy="333" r="22" fill="#fef3c7"/>
    <path d="M256 320v17" fill="none" stroke="#b45309" stroke-width="8" stroke-linecap="round"/>
    <circle cx="256" cy="346" r="4" fill="#b45309"/>
  </g>
  <g>
    <circle cx="324" cy="333" r="22" fill="#ede9fe"/>
    <path d="M313 333h22M324 322v22" fill="none" stroke="#7c3aed" stroke-width="8" stroke-linecap="round"/>
  </g>
</svg>
